<?xml version="1.0" encoding="UTF-8"?>
<svg version="1.1" viewBox="0 0 298.51 389.67" xml:space="preserve" xmlns="http://www.w3.org/2000/svg" xmlns:cc="http://creativecommons.org/ns#" xmlns:dc="http://purl.org/dc/elements/1.1/" xmlns:rdf="http://www.w3.org/1999/02/22-rdf-syntax-ns#">
<metadata>
  <rdf:RDF><cc:Work rdf:about="">
    <dc:format>image/svg+xml</dc:format>
    <dc:type rdf:resource="http://purl.org/dc/dcmitype/StillImage"/>
    <dc:title/>
  </cc:Work></rdf:RDF>
</metadata>
<defs>
<clipPath id="a"><path d="M 0,841.89 H 1190.55 V 0 H 0 Z"/></clipPath>
</defs>
<g transform="matrix(1.3333 0 0 -1.3333 -417.77 929.37)">
<g transform="translate(592.45 -240.82)">
<g transform="translate(-542.91 143.63)" clip-path="url(#a)">
<g transform="translate(428.35 757.99)">
<path d="m0 0c14.666 0 22.607-16.871 13.598-28.444l-57.379-73.702c-4.671-6-4.967-14.318-0.734-20.634l70.912-105.81c7.845-11.706-0.545-27.428-14.637-27.428h-158.7c-9.731 0-17.62 7.888-17.62 17.619v220.78c0 9.731 7.889 17.62 17.62 17.62h146.94" fill="#decf17"/>
</g>
<g transform="translate(290.64 571.1)">
<path d="m0 0 10.212 13.955h9.11l-13.063-17.647 14.667-21.313h-9.682l-10.37 15.297-3.782-4.526v-10.771h-8.021v38.96h8.021v-18.208z" fill="#fdffff"/>
</g>
<g transform="translate(308.98 578.41)"><path d="m0 0c0 2.807 2.292 4.813 4.927 4.813 2.636 0 4.87-2.006 4.87-4.813 0-2.865-2.234-4.87-4.87-4.87-2.635 0-4.927 2.005-4.927 4.87" fill="#fdffff"/>
</g>
<path d="m310.01 570.5h7.735v-24.407h-7.735z" fill="#fdffff"/>
<g transform="translate(317.1 558.36)"><path d="m0 0c0 7.391 5.729 12.662 13.35 12.662 4.87 0 7.792-1.776 10.255-4.87l-5.5-4.469c-0.917 1.489-2.807 2.578-4.755 2.578-3.495 0-5.443-2.464-5.443-5.901 0-3.553 1.948-6.074 5.443-6.074 2.463 0 3.781 1.146 4.927 2.292l5.214-4.583c-2.406-2.693-5.271-4.412-10.141-4.412-7.621 0-13.35 5.271-13.35 12.777" fill="#fdffff"/>
</g>
<g transform="translate(347.66 546.1)"><path d="m0 0h-7.735v41.366h7.735v-21.084l-0.026-5.19 7.646 9.315h8.594l-8.651-9.969 9.568-14.438h-8.995l-6.073 9.224-2.063-2.177z" fill="#fdffff"/></g><g transform="translate(362.11 578.41)"><path d="m0 0c0 2.807 2.292 4.813 4.927 4.813 2.636 0 4.87-2.006 4.87-4.813 0-2.865-2.234-4.87-4.87-4.87-2.635 0-4.927 2.005-4.927 4.87" fill="#fdffff"/></g><path d="m363.14 570.5h7.735v-24.407h-7.735z" fill="#fdffff"/><g transform="translate(374.21 555.26)"><path d="m0 0v8.823h-3.61v6.417h3.61v12.72h7.677v-12.72h6.245v-6.417h-6.245v-9.052c0-2.464 0.802-2.979 2.006-2.979 1.26 0 2.177 0.687 2.692 1.031l2.922-5.385c-1.203-0.975-3.265-2.235-6.818-2.235-4.927 0-8.479 2.464-8.479 9.797" fill="#fdffff"/></g><g transform="translate(339.33 539.97)"><path d="m0 0h7.729l-0.115-4.408c1.775 4.007 4.637 4.923 7.156 4.923 1.603 0 2.805-0.458 3.778-0.973l-2.461-7.042c-0.974 0.458-1.889 0.745-2.977 0.745-3.492 0-5.381-1.603-5.381-6.813v-10.82h-7.729z"/></g><g transform="translate(363.88 525.49)"><path d="m0 0c-1.946 0-2.805-0.859-2.805-2.233s1.145-2.175 3.321-2.175c3.148 0 4.751 1.374 4.751 3.435v0.973zm1.203 8.645c-2.92 0-4.466-1.26-5.554-2.233l-4.294 4.58c2.291 2.233 4.867 4.007 10.592 4.007 6.24 0 10.991-3.377 10.991-11.049v-13.854h-7.671l0.172 3.378c-1.832-2.806-3.95-3.893-7.213-3.893-4.466 0-8.588 2.003-8.588 7.671 0 5.21 3.95 7.328 9.962 7.328h5.667c-0.114 2.805-1.488 4.065-4.064 4.065"/></g><g transform="translate(395.17 527.84)"><path d="m0 0c0 3.607-2.175 5.839-5.496 5.839-3.263 0-5.324-2.232-5.324-5.839 0-3.836 2.061-6.011 5.324-6.011 3.321 0 5.496 2.175 5.496 6.011m-18.778 0c0 7.5 5.038 12.652 10.935 12.652 3.893 0 6.068-1.546 7.614-3.95v20.381h7.729v-41.334h-7.729l0.172 3.549c-1.374-2.576-3.95-4.065-7.672-4.065-5.954 0-11.049 5.267-11.049 12.767"/></g><path d="m405.13 539.97h7.729v-24.388h-7.729zm-1.03 8.931c0 2.805 2.29 4.809 4.923 4.809 2.634 0 4.866-2.004 4.866-4.809 0-2.863-2.232-4.866-4.866-4.866-2.633 0-4.923 2.003-4.923 4.866"/><g transform="translate(431.78 527.72)"><path d="m0 0c0 3.664-2.061 6.125-5.496 6.125s-5.553-2.461-5.553-6.125c0-3.607 2.118-6.125 5.553-6.125s5.496 2.518 5.496 6.125m-18.949 0c0 7.442 5.896 12.766 13.453 12.766s13.396-5.324 13.396-12.766c0-7.386-5.839-12.652-13.396-12.652s-13.453 5.266-13.453 12.652"/></g><path d="m408.47 521.35h-8.887v-5.764h8.887z"/></g><g transform="translate(-6,-7.5)" fill="#decf17"><path d="m-69.915 880.89c-1.558 0-2.822 1.263-2.822 2.822 0 22.209-18.068 40.277-40.277 40.277-1.559 0-2.822 1.263-2.822 2.822 0 1.558 1.263 2.822 2.822 2.822 25.321 0 45.921-20.6 45.921-45.921 0-1.559-1.263-2.822-2.822-2.822"/><path d="m-52.058 880.92c-1.559 0-2.822 1.263-2.822 2.822 0 30.861-25.107 55.968-55.968 55.968-1.558 0-2.822 1.263-2.822 2.821 0 1.559 1.264 2.822 2.822 2.822 16.47 0 31.946-6.405 43.576-18.036 11.631-11.63 18.036-27.105 18.036-43.575 0-1.559-1.264-2.822-2.822-2.822"/>
</g></g></g></svg>
